<?xml version="1.0" encoding="UTF-8" standalone="no"?>
<svg width="14px" height="14px" viewBox="0 0 14 14" version="1.1" xmlns="http://www.w3.org/2000/svg" xmlns:xlink="http://www.w3.org/1999/xlink">
    <!-- Generator: Sketch 39.1 (31720) - http://www.bohemiancoding.com/sketch -->
    <title>icon-info</title>
    <desc>Created with Sketch.</desc>
    <defs></defs>
    <g id="Page-1" stroke="none" stroke-width="1" fill="none" fill-rule="evenodd">
        <g id="icon-info" fill="#000000">
            <path d="M7,14 C10.8659932,14 14,10.8659932 14,7 C14,3.13400675 10.8659932,0 7,0 C3.13400675,0 0,3.13400675 0,7 C0,10.8659932 3.13400675,14 7,14 Z M7,13 C10.3137085,13 13,10.3137085 13,7 C13,3.6862915 10.3137085,1 7,1 C3.6862915,1 1,3.6862915 1,7 C1,10.3137085 3.6862915,13 7,13 Z" id="Combined-Shape"></path>
            <rect id="Rectangle-4" x="6" y="7" width="2" height="4"></rect>
            <circle id="Oval-2" cx="7" cy="4.5" r="1"></circle>
        </g>
    </g>
</svg>