<?xml version="1.0" encoding="UTF-8" standalone="no"?>
<svg width="12px" height="12px" viewBox="0 0 12 12" version="1.1" xmlns="http://www.w3.org/2000/svg" xmlns:xlink="http://www.w3.org/1999/xlink">
    <!-- Generator: Sketch 39.1 (31720) - http://www.bohemiancoding.com/sketch -->
    <title>Combined Shape</title>
    <desc>Created with Sketch.</desc>
    <defs></defs>
    <g id="Page-1" stroke="none" stroke-width="1" fill="none" fill-rule="evenodd">
        <path d="M11,4 L11,3.98227012 L8,1 L1,1 L1,11 L11,11 L11,5 L7,5 L7,4 L11,4 Z M0,12 L12,12 L12,4 L8,0 L0,0 L0,12 Z M2,8 L10,8 L10,9 L2,9 L2,8 Z M2,6 L10,6 L10,7 L2,7 L2,6 Z M2,4 L6,4 L6,5 L2,5 L2,4 Z M2,2 L6,2 L6,3 L2,3 L2,2 Z M7,1 L8,1 L8,4 L7,4 L7,1 Z" id="Combined-Shape" fill="#000000"></path>
    </g>
</svg>